<?xml version="1.0" standalone="no"?>
<!DOCTYPE svg PUBLIC "-//W3C//DTD SVG 20010904//EN"
 "http://www.w3.org/TR/2001/REC-SVG-20010904/DTD/svg10.dtd">
<svg version="1.0" xmlns="http://www.w3.org/2000/svg"
 width="310.000000pt" height="310.000000pt" viewBox="0 0 310.000000 310.000000"
 preserveAspectRatio="xMidYMid meet">
<metadata>
Created by potrace 1.11, written by Peter Selinger 2001-2013
</metadata>
<g transform="translate(0.000000,310.000000) scale(0.100000,-0.100000)"
fill="#000000" stroke="none">
<path d="M413 3043 c3 -16 89 -546 192 -1180 l187 -1152 -169 -332 c-92 -183
-169 -336 -171 -341 -2 -4 492 -8 1098 -8 606 0 1100 4 1098 8 -1 5 -79 158
-171 341 l-169 332 187 1152 c103 634 189 1164 192 1180 l6 27 -1143 0 -1142
0 5 -27z m2050 -160 c2 -5 -76 -502 -174 -1105 l-178 -1098 115 -223 c63 -123
114 -227 114 -231 0 -3 -355 -6 -790 -6 -434 0 -790 3 -790 6 0 4 51 108 114
231 l115 223 -178 1098 c-98 603 -176 1100 -174 1105 5 9 1821 9 1826 0z"/>
<path d="M874 2663 c9 -45 296 -1877 296 -1890 0 -10 32 -13 126 -13 l125 0
-6 68 c-3 37 -12 209 -20 382 -8 173 -17 339 -20 368 l-5 52 180 0 180 0 0
-37 c0 -21 -9 -213 -20 -428 -11 -214 -20 -393 -20 -397 0 -5 56 -8 125 -8 71
0 125 4 125 9 0 6 27 196 60 424 33 228 60 422 60 430 0 9 -34 34 -77 58 l-77
42 92 46 c63 31 94 52 97 66 22 97 124 750 118 755 -4 4 -59 28 -122 53 l-113
47 -555 0 -555 0 6 -27z m896 -225 c0 -7 -7 -123 -15 -258 -8 -135 -15 -253
-15 -262 0 -17 -16 -18 -194 -18 l-194 0 -6 58 c-3 31 -10 143 -16 247 -6 105
-13 202 -15 218 l-4 27 229 0 c177 0 230 -3 230 -12z"/>
<path d="M1101 488 l-48 -103 160 -3 c88 -1 161 -1 163 0 1 2 11 49 22 106
l19 102 -134 0 -134 0 -48 -102z"/>
<path d="M1723 568 c3 -13 11 -60 18 -105 l12 -83 158 0 c147 0 158 1 152 18
-4 9 -23 55 -44 102 l-36 85 -133 3 -132 3 5 -23z"/>
</g>
</svg>
