<?xml version="1.0" encoding="UTF-8"?>
<svg width="1000px" height="446px" viewBox="0 0 1000 446" version="1.1" xmlns="http://www.w3.org/2000/svg" xmlns:xlink="http://www.w3.org/1999/xlink">
    <!-- Generator: Sketch 43.1 (39012) - http://www.bohemiancoding.com/sketch -->
    <title>Logo</title>
    <desc>Created with Sketch.</desc>
    <defs>
        <polygon id="path-1" points="10.2090603 56.6152344 399.15457 36.3125 788.104582 56.6152344 794.029256 24.7353337 399.15457 0 0 17.3297087"></polygon>
    </defs>
    <g id="Symbols" stroke="none" stroke-width="1" fill="none" fill-rule="evenodd">
        <g id="Logo">
            <polygon id="Path-2" stroke="#121212" stroke-width="18" fill="#FFFFFF" points="88.8059701 350.450012 25 48 500 75.8709134 975 48.0018925 911.19403 350.450012 929.424307 400.109985 500 379.239035 70.575693 400.109985"></polygon>
            <g id="reflection-+-Path-Mask" transform="translate(101.000000, 320.000000)">
                <mask id="mask-2" fill="white">
                    <use xlink:href="#path-1"></use>
                </mask>
                <g id="Mask"></g>
                <path d="M493.308307,321.651216 L448.118259,323.231871 L431.813417,307.577717 L394,33.6848803 L404.314161,18 L444.579893,19.4447659 L459.774499,35.8037671 L471.225036,104.449017 L449.028227,104.070099 L440.008657,46.7203732 L416.979259,46.040455 L453.668782,295.189045 L478.976241,294.470076 L469.76587,235.916824 L493.099674,235.558486 L504.738613,305.303569 L493.308307,321.651216 Z M603.59578,317.115355 L529.592183,320.265249 L524.808412,293.063099 L549.733172,292.24115 L499.396299,21.6143077 L520.539142,22.5134803 L573.186657,291.431147 L598.100554,290.53184 L603.59578,317.115355 Z M681.234361,313.343676 L625.785047,316.086264 L620.078758,289.705239 L635.827123,289.093757 L582.964504,51.6986041 L568.593803,51.1392467 L562.839535,24.4165455 L612.435258,26.8243862 L618.732215,53.1478956 L604.356893,52.5556277 L659.262407,288.154134 L675.005205,287.502998 L681.234361,313.343676 Z M717.442843,311.420794 L762.498384,308.882269 L772.416938,293.732601 L701.978369,46.2031118 L685.224358,30.7027363 L644.85234,28.5010697 L636.047215,42.9686297 L699.684472,297.379258 L717.442843,311.420794 Z M745.637176,284.384185 L720.390508,285.536071 L660.197032,54.9298922 L683.276884,55.9691147 L745.637176,284.384185 Z M822.895557,305.99607 L819.825749,305.804134 L798.788413,307.109513 L717.667241,32.5631567 L738.860633,33.8223038 L779.169314,165.722142 L758.77172,36.1866871 L758.402633,35.0140026 L779.605446,36.3402358 L867.787171,302.695445 L844.178603,304.248727 L804.305357,179.939961 L822.895557,305.99607 Z" id="reflection" stroke="#B5090A" stroke-width="3" fill="#B5090A" mask="url(#mask-2)"></path>
                <path d="M2.98339804,302.157908 L20.623636,288.841435 L47.8849346,180.929868 L39.5213455,168.246468 L54.188456,155.850676 L85.2292088,31.6822945 L63.7696196,32.8693002 L31.7335954,155.27302 L6.99354378,155.490913 L40.3253343,34.2053397 L19.1890475,35.4449685 L-57,298.867014 L2.98339804,302.157908 Z M-0.611201567,277.572259 L-26.6466627,276.439028 L0.0801895502,180.469542 L25.0875066,180.510499 L-0.611201567,277.572259 Z M101.902134,306.989356 L107.240439,281.821268 L68.7140754,280.385786 L91.3886747,181.775734 L121.343386,181.819907 L126.779946,156.461046 L97.1391291,156.679839 L120.379047,54.9072611 L155.420123,53.4406201 L160.806421,27.7755421 L105.0351,30.6172492 L39.2823774,304.01691 L101.902134,306.989356 Z M186.057592,310.516998 L190.560848,284.613152 L152.749574,283.399138 L172.091537,181.880787 L201.342978,181.907904 L205.935503,155.906345 L176.993645,156.10417 L201.713051,25.8389909 L180.601467,26.8228072 L124.140863,307.973598 L186.057592,310.516998 Z M343.75577,315.688411 L346.667805,288.694958 L308.086793,287.825385 L321.174034,181.958123 L351.133275,181.955391 L354.123048,154.983631 L324.486705,155.156094 L337.8493,47.023529 L372.84502,46.0265701 L375.760253,19 L320.075908,20.9410338 L281.025945,313.855782 L343.75577,315.688411 Z M232.049713,312.218879 L272.504413,49.0868952 L301.512683,48.1384833 L305.244915,21.4972347 L255.467013,23.4845564 L208.309926,311.36035 L232.049713,312.218879 Z" id="Path" stroke="#B5090A" stroke-width="3" fill="#B5090A" mask="url(#mask-2)"></path>
            </g>
            <g id="Group-2" transform="translate(71.000000, 83.000000)" stroke="#121212" stroke-width="3" fill="#121212">
                <path d="M481.518654,17.4086959 L436.106647,19.4601077 L422,31.7688856 L422.647298,230.211544 L435.163969,242.460243 L475.226824,244.297686 L488.124258,232.90085 L489.935458,181.096139 L467.791857,180.645454 L466.825478,223.352259 L443.891556,222.490492 L445.595014,39.4156382 L471.003432,38.4784375 L470.015255,82.2612929 L493.399378,81.8105951 L495.244538,28.8111322 L481.518654,17.4086959 Z M592.443065,12.3978703 L517.997152,15.7608405 L517.033174,36.7806101 L542.073354,35.856992 L529.738577,246.797813 L550.755156,247.761717 L565.640582,34.9877044 L590.680762,34.0640863 L592.443065,12.3978703 Z M670.611274,8.86675158 L614.776839,11.3889792 L612.775039,33.2491291 L628.60927,32.6650765 L609.08227,228.697714 L594.790116,228.160671 L592.788316,249.689525 L642.045924,251.948676 L644.646468,230.034078 L630.354314,229.497035 L652.176499,31.7957889 L668.01073,31.2117362 L670.611274,8.86675158 Z M707.089771,7.21889619 L752.501779,5.16748438 L764.547687,17.9361603 L728.867826,242.788803 L714.290416,255.262097 L674.227562,253.424654 L663.390866,240.099497 L691.303149,20.8939136 L707.089771,7.21889619 Z M739.080653,28.5902907 L713.672235,29.5274915 L685.861053,231.582762 L708.794975,232.444529 L739.080653,28.5902907 Z M813.30424,1.68859422 L810.261383,2.19256434 L789.040743,3.15391947 L746.472054,256.738075 L767.488634,257.701979 L789.275611,136.004366 L787.067708,257.511786 L786.863293,258.590579 L807.879872,259.554483 L858.659335,0 L834.832651,1.07941629 L812.415153,122.510627 L813.30424,1.68859422 Z" id="reflection"></path>
                <path d="M60.3011898,2.76953193 L76.6554962,16.9123298 L93.4961014,119.044736 L83.9077148,130.919488 L97.3778012,142.408551 L116.427989,256.107816 L95.0830256,257.103143 L74.8671582,143.237123 L50.1481478,143.358085 L71.7677576,258.190346 L50.751178,259.17036 L5.68434189e-14,0 L60.3011898,2.76953193 Z M54.3324284,25.8474735 L28.1875346,24.8669901 L45.6469041,119.222808 L70.6581763,119.317757 L54.3324284,25.8474735 Z M159.686484,7.33413085 L162.594383,29.907503 L123.929399,28.4574925 L137.081524,118.507975 L167.040501,118.63354 L170.028232,141.023239 L140.408544,141.148683 L153.820592,231.850431 L188.720039,230.517129 L191.627938,252.601204 L136.131033,255.189053 L96.7796873,4.44492779 L159.686484,7.33413085 Z M244.182596,11.2148947 L246.184396,33.0422877 L208.255888,31.6198964 L217.794532,118.846264 L247.048591,118.968875 L249.130224,140.688231 L220.207469,140.810723 L232.347561,250.702427 L211.330982,251.682441 L182.020258,8.35988342 L244.182596,11.2148947 Z M402.380161,18.4806421 L402.685521,38.9113781 L364.020537,37.4613675 L366.884497,119.471139 L396.843473,119.596705 L397.228665,140.061012 L367.608977,140.186456 L370.529537,223.57126 L405.428983,222.237957 L405.734343,242.617312 L350.237437,245.205161 L339.473365,15.591439 L402.380161,18.4806421 Z M290.339062,13.3347834 L305.383903,226.06009 L334.300588,224.955354 L335.460155,245.894234 L285.874162,248.206454 L266.51637,12.2406473 L290.339062,13.3347834 Z" id="Path"></path>
            </g>
        </g>
    </g>
</svg>