<?xml version="1.0" encoding="UTF-8"?>
<svg width="1000px" height="446px" viewBox="0 0 1000 446" version="1.1" xmlns="http://www.w3.org/2000/svg" xmlns:xlink="http://www.w3.org/1999/xlink">
    <!-- Generator: Sketch 43.1 (39012) - http://www.bohemiancoding.com/sketch -->
    <title>Logo</title>
    <desc>Created with Sketch.</desc>
    <defs>
        <polygon id="path-1" points="10.2090603 56.6152344 399.15457 36.3125 788.104582 56.6152344 794.029256 24.7353337 399.15457 0 0 17.3297087"></polygon>
    </defs>
    <g id="Symbols" stroke="none" stroke-width="1" fill="none" fill-rule="evenodd">
        <g id="Logo">
            <polygon id="Path-2" stroke="#121212" stroke-width="18" fill="#FFFFFF" points="88.8059701 350.450012 25 48 500 75.8709134 975 48.0018925 911.19403 350.450012 929.424307 400.109985 500 379.239035 70.575693 400.109985"></polygon>
            <g id="reflection-+-Path-Mask" transform="translate(95.000000, 320.000000)">
                <mask id="mask-2" fill="white">
                    <use xlink:href="#path-1"></use>
                </mask>
                <g id="Mask"></g>
                <path d="M493.308307,321.651216 L448.118259,323.231871 L431.813417,307.577717 L394,33.6848803 L404.314161,18 L444.579893,19.4447659 L459.774499,35.8037671 L471.225036,104.449017 L449.028227,104.070099 L440.008657,46.7203732 L416.979259,46.040455 L453.668782,295.189045 L478.976241,294.470076 L469.76587,235.916824 L493.099674,235.558486 L504.738613,305.303569 L493.308307,321.651216 Z M603.59578,317.115355 L529.592183,320.265249 L524.808412,293.063099 L549.733172,292.24115 L499.396299,21.6143077 L520.539142,22.5134803 L573.186657,291.431147 L598.100554,290.53184 L603.59578,317.115355 Z M681.234361,313.343676 L625.785047,316.086264 L620.078758,289.705239 L635.827123,289.093757 L582.964504,51.6986041 L568.593803,51.1392467 L562.839535,24.4165455 L612.435258,26.8243862 L618.732215,53.1478956 L604.356893,52.5556277 L659.262407,288.154134 L675.005205,287.502998 L681.234361,313.343676 Z M717.442843,311.420794 L762.498384,308.882269 L772.416938,293.732601 L701.978369,46.2031118 L685.224358,30.7027363 L644.85234,28.5010697 L636.047215,42.9686297 L699.684472,297.379258 L717.442843,311.420794 Z M745.637176,284.384185 L720.390508,285.536071 L660.197032,54.9298922 L683.276884,55.9691147 L745.637176,284.384185 Z M822.895557,305.99607 L819.825749,305.804134 L798.788413,307.109513 L717.667241,32.5631567 L738.860633,33.8223038 L779.169314,165.722142 L758.77172,36.1866871 L758.402633,35.0140026 L779.605446,36.3402358 L867.787171,302.695445 L844.178603,304.248727 L804.305357,179.939961 L822.895557,305.99607 Z" id="reflection" stroke="#B5090A" stroke-width="3" fill="#B5090A" mask="url(#mask-2)"></path>
                <path d="M2.98339804,302.157908 L20.623636,288.841435 L47.8849346,180.929868 L39.5213455,168.246468 L54.188456,155.850676 L85.2292088,31.6822945 L63.7696196,32.8693002 L31.7335954,155.27302 L6.99354378,155.490913 L40.3253343,34.2053397 L19.1890475,35.4449685 L-57,298.867014 L2.98339804,302.157908 Z M-0.611201567,277.572259 L-26.6466627,276.439028 L0.0801895502,180.469542 L25.0875066,180.510499 L-0.611201567,277.572259 Z M101.902134,306.989356 L107.240439,281.821268 L68.7140754,280.385786 L91.3886747,181.775734 L121.343386,181.819907 L126.779946,156.461046 L97.1391291,156.679839 L120.379047,54.9072611 L155.420123,53.4406201 L160.806421,27.7755421 L105.0351,30.6172492 L39.2823774,304.01691 L101.902134,306.989356 Z M186.057592,310.516998 L190.560848,284.613152 L152.749574,283.399138 L172.091537,181.880787 L201.342978,181.907904 L205.935503,155.906345 L176.993645,156.10417 L201.713051,25.8389909 L180.601467,26.8228072 L124.140863,307.973598 L186.057592,310.516998 Z M343.75577,315.688411 L346.667805,288.694958 L308.086793,287.825385 L321.174034,181.958123 L351.133275,181.955391 L354.123048,154.983631 L324.486705,155.156094 L337.8493,47.023529 L372.84502,46.0265701 L375.760253,19 L320.075908,20.9410338 L281.025945,313.855782 L343.75577,315.688411 Z M232.049713,312.218879 L272.504413,49.0868952 L301.512683,48.1384833 L305.244915,21.4972347 L255.467013,23.4845564 L208.309926,311.36035 L232.049713,312.218879 Z" id="Path" stroke="#B5090A" stroke-width="3" fill="#B5090A" mask="url(#mask-2)"></path>
            </g>
            <g id="Group-2" transform="translate(65.000000, 7.000000)" fill="#121212">
                <path d="M481.518654,93.4086959 L436.106647,95.4601077 L422,107.768886 L422.647298,306.211544 L435.163969,318.460243 L475.226824,320.297686 L488.124258,308.90085 L489.935458,257.096139 L467.791857,256.645454 L466.825478,299.352259 L443.891556,298.490492 L445.595014,115.415638 L471.003432,114.478437 L470.015255,158.261293 L493.399378,157.810595 L495.244538,104.811132 L481.518654,93.4086959 Z M592.443065,88.3978703 L517.997152,91.7608405 L517.033174,112.78061 L542.073354,111.856992 L529.738577,322.797813 L550.755156,323.761717 L565.640582,110.987704 L590.680762,110.064086 L592.443065,88.3978703 Z M670.611274,84.8667516 L614.776839,87.3889792 L612.775039,109.249129 L628.60927,108.665076 L609.08227,304.697714 L594.790116,304.160671 L592.788316,325.689525 L642.045924,327.948676 L644.646468,306.034078 L630.354314,305.497035 L652.176499,107.795789 L668.01073,107.211736 L670.611274,84.8667516 Z M707.089771,83.2188962 L752.501779,81.1674844 L764.547687,93.9361603 L728.867826,318.788803 L714.290416,331.262097 L674.227562,329.424654 L663.390866,316.099497 L691.303149,96.8939136 L707.089771,83.2188962 Z M739.080653,104.590291 L713.672235,105.527491 L685.861053,307.582762 L708.794975,308.444529 L739.080653,104.590291 Z M813.30424,77.6885942 L810.261383,78.1925643 L789.040743,79.1539195 L746.472054,332.738075 L767.488634,333.701979 L789.275611,212.004366 L787.067708,333.511786 L786.863293,334.590579 L807.879872,335.554483 L858.659335,76 L834.832651,77.0794163 L812.415153,198.510627 L813.30424,77.6885942 Z" id="reflection" stroke="#121212" stroke-width="3"></path>
                <path d="M60.3011898,78.7695319 L76.6554962,92.9123298 L93.4961014,195.044736 L83.9077148,206.919488 L97.3778012,218.408551 L116.427989,332.107816 L95.0830256,333.103143 L74.8671582,219.237123 L50.1481478,219.358085 L71.7677576,334.190346 L50.751178,335.17036 L5.68434189e-14,76 L60.3011898,78.7695319 Z M54.3324284,101.847473 L28.1875346,100.86699 L45.6469041,195.222808 L70.6581763,195.317757 L54.3324284,101.847473 Z M159.686484,83.3341309 L162.594383,105.907503 L123.929399,104.457492 L137.081524,194.507975 L167.040501,194.63354 L170.028232,217.023239 L140.408544,217.148683 L153.820592,307.850431 L188.720039,306.517129 L191.627938,328.601204 L136.131033,331.189053 L96.7796873,80.4449278 L159.686484,83.3341309 Z M244.182596,87.2148947 L246.184396,109.042288 L208.255888,107.619896 L217.794532,194.846264 L247.048591,194.968875 L249.130224,216.688231 L220.207469,216.810723 L232.347561,326.702427 L211.330982,327.682441 L182.020258,84.3598834 L244.182596,87.2148947 Z M402.380161,94.4806421 L402.685521,114.911378 L364.020537,113.461368 L366.884497,195.471139 L396.843473,195.596705 L397.228665,216.061012 L367.608977,216.186456 L370.529537,299.57126 L405.428983,298.237957 L405.734343,318.617312 L350.237437,321.205161 L339.473365,91.591439 L402.380161,94.4806421 Z M290.339062,89.3347834 L305.383903,302.06009 L334.300588,300.955354 L335.460155,321.894234 L285.874162,324.206454 L266.51637,88.2406473 L290.339062,89.3347834 Z" id="Path" stroke="#121212" stroke-width="3"></path>
                <text id="est.-2016" font-family="BourbonGrotesque-Regular, Bourbon Grotesque" font-size="30" font-weight="normal" letter-spacing="11.25">
                    <tspan x="298.698588" y="30">est. 2016</tspan>
                </text>
                <text id="detailing" font-family="BourbonGrotesque-Regular, Bourbon Grotesque" font-size="30" font-weight="normal" letter-spacing="20.0799999">
                    <tspan x="256.867865" y="426">detailin</tspan>
                    <tspan x="576.327864" y="426">g</tspan>
                </text>
            </g>
        </g>
    </g>
</svg>