<?xml version="1.0" encoding="UTF-8"?>
<svg width="1000px" height="446px" viewBox="0 0 1000 446" version="1.1" xmlns="http://www.w3.org/2000/svg" xmlns:xlink="http://www.w3.org/1999/xlink">
    <!-- Generator: Sketch 43.1 (39012) - http://www.bohemiancoding.com/sketch -->
    <title>Logo</title>
    <desc>Created with Sketch.</desc>
    <defs>
        <polygon id="path-1" points="10.2090603 56.6152344 399.15457 36.3125 788.104582 56.6152344 794.029256 24.7353337 399.15457 0 0 17.3297087"></polygon>
    </defs>
    <g id="Symbols" stroke="none" stroke-width="1" fill="none" fill-rule="evenodd">
        <g id="Logo">
            <polygon id="Path-2" stroke="#121212" stroke-width="18" fill="#FFFFFF" points="88.8059701 350.450012 25 48 500 75.8709134 975 48.0018925 911.19403 350.450012 929.424307 400.109985 500 379.239035 70.575693 400.109985"></polygon>
            <g id="reflection-+-Path-Mask" transform="translate(95.000000, 320.000000)">
                <mask id="mask-2" fill="white">
                    <use xlink:href="#path-1"></use>
                </mask>
                <g id="Mask"></g>
                <path d="M493.308307,321.651216 L448.118259,323.231871 L431.813417,307.577717 L394,33.6848803 L404.314161,18 L444.579893,19.4447659 L459.774499,35.8037671 L471.225036,104.449017 L449.028227,104.070099 L440.008657,46.7203732 L416.979259,46.040455 L453.668782,295.189045 L478.976241,294.470076 L469.76587,235.916824 L493.099674,235.558486 L504.738613,305.303569 L493.308307,321.651216 Z M603.59578,317.115355 L529.592183,320.265249 L524.808412,293.063099 L549.733172,292.24115 L499.396299,21.6143077 L520.539142,22.5134803 L573.186657,291.431147 L598.100554,290.53184 L603.59578,317.115355 Z M681.234361,313.343676 L625.785047,316.086264 L620.078758,289.705239 L635.827123,289.093757 L582.964504,51.6986041 L568.593803,51.1392467 L562.839535,24.4165455 L612.435258,26.8243862 L618.732215,53.1478956 L604.356893,52.5556277 L659.262407,288.154134 L675.005205,287.502998 L681.234361,313.343676 Z M717.442843,311.420794 L762.498384,308.882269 L772.416938,293.732601 L701.978369,46.2031118 L685.224358,30.7027363 L644.85234,28.5010697 L636.047215,42.9686297 L699.684472,297.379258 L717.442843,311.420794 Z M745.637176,284.384185 L720.390508,285.536071 L660.197032,54.9298922 L683.276884,55.9691147 L745.637176,284.384185 Z M822.895557,305.99607 L819.825749,305.804134 L798.788413,307.109513 L717.667241,32.5631567 L738.860633,33.8223038 L779.169314,165.722142 L758.77172,36.1866871 L758.402633,35.0140026 L779.605446,36.3402358 L867.787171,302.695445 L844.178603,304.248727 L804.305357,179.939961 L822.895557,305.99607 Z" id="reflection" stroke="#B5090A" stroke-width="3" fill="#B5090A" mask="url(#mask-2)"></path>
                <path d="M2.98339804,302.157908 L20.623636,288.841435 L47.8849346,180.929868 L39.5213455,168.246468 L54.188456,155.850676 L85.2292088,31.6822945 L63.7696196,32.8693002 L31.7335954,155.27302 L6.99354378,155.490913 L40.3253343,34.2053397 L19.1890475,35.4449685 L-57,298.867014 L2.98339804,302.157908 Z M-0.611201567,277.572259 L-26.6466627,276.439028 L0.0801895502,180.469542 L25.0875066,180.510499 L-0.611201567,277.572259 Z M101.902134,306.989356 L107.240439,281.821268 L68.7140754,280.385786 L91.3886747,181.775734 L121.343386,181.819907 L126.779946,156.461046 L97.1391291,156.679839 L120.379047,54.9072611 L155.420123,53.4406201 L160.806421,27.7755421 L105.0351,30.6172492 L39.2823774,304.01691 L101.902134,306.989356 Z M186.057592,310.516998 L190.560848,284.613152 L152.749574,283.399138 L172.091537,181.880787 L201.342978,181.907904 L205.935503,155.906345 L176.993645,156.10417 L201.713051,25.8389909 L180.601467,26.8228072 L124.140863,307.973598 L186.057592,310.516998 Z M343.75577,315.688411 L346.667805,288.694958 L308.086793,287.825385 L321.174034,181.958123 L351.133275,181.955391 L354.123048,154.983631 L324.486705,155.156094 L337.8493,47.023529 L372.84502,46.0265701 L375.760253,19 L320.075908,20.9410338 L281.025945,313.855782 L343.75577,315.688411 Z M232.049713,312.218879 L272.504413,49.0868952 L301.512683,48.1384833 L305.244915,21.4972347 L255.467013,23.4845564 L208.309926,311.36035 L232.049713,312.218879 Z" id="Path" stroke="#B5090A" stroke-width="3" fill="#B5090A" mask="url(#mask-2)"></path>
            </g>
            <g id="Group-2" transform="translate(65.000000, 15.000000)" fill="#121212">
                <path d="M481.518654,85.4086959 L436.106647,87.4601077 L422,99.7688856 L422.647298,298.211544 L435.163969,310.460243 L475.226824,312.297686 L488.124258,300.90085 L489.935458,249.096139 L467.791857,248.645454 L466.825478,291.352259 L443.891556,290.490492 L445.595014,107.415638 L471.003432,106.478437 L470.015255,150.261293 L493.399378,149.810595 L495.244538,96.8111322 L481.518654,85.4086959 Z M592.443065,80.3978703 L517.997152,83.7608405 L517.033174,104.78061 L542.073354,103.856992 L529.738577,314.797813 L550.755156,315.761717 L565.640582,102.987704 L590.680762,102.064086 L592.443065,80.3978703 Z M670.611274,76.8667516 L614.776839,79.3889792 L612.775039,101.249129 L628.60927,100.665076 L609.08227,296.697714 L594.790116,296.160671 L592.788316,317.689525 L642.045924,319.948676 L644.646468,298.034078 L630.354314,297.497035 L652.176499,99.7957889 L668.01073,99.2117362 L670.611274,76.8667516 Z M707.089771,75.2188962 L752.501779,73.1674844 L764.547687,85.9361603 L728.867826,310.788803 L714.290416,323.262097 L674.227562,321.424654 L663.390866,308.099497 L691.303149,88.8939136 L707.089771,75.2188962 Z M739.080653,96.5902907 L713.672235,97.5274915 L685.861053,299.582762 L708.794975,300.444529 L739.080653,96.5902907 Z M813.30424,69.6885942 L810.261383,70.1925643 L789.040743,71.1539195 L746.472054,324.738075 L767.488634,325.701979 L789.275611,204.004366 L787.067708,325.511786 L786.863293,326.590579 L807.879872,327.554483 L858.659335,68 L834.832651,69.0794163 L812.415153,190.510627 L813.30424,69.6885942 Z" id="reflection" stroke="#121212" stroke-width="3"></path>
                <path d="M60.3011898,70.7695319 L76.6554962,84.9123298 L93.4961014,187.044736 L83.9077148,198.919488 L97.3778012,210.408551 L116.427989,324.107816 L95.0830256,325.103143 L74.8671582,211.237123 L50.1481478,211.358085 L71.7677576,326.190346 L50.751178,327.17036 L5.68434189e-14,68 L60.3011898,70.7695319 Z M54.3324284,93.8474735 L28.1875346,92.8669901 L45.6469041,187.222808 L70.6581763,187.317757 L54.3324284,93.8474735 Z M159.686484,75.3341309 L162.594383,97.907503 L123.929399,96.4574925 L137.081524,186.507975 L167.040501,186.63354 L170.028232,209.023239 L140.408544,209.148683 L153.820592,299.850431 L188.720039,298.517129 L191.627938,320.601204 L136.131033,323.189053 L96.7796873,72.4449278 L159.686484,75.3341309 Z M244.182596,79.2148947 L246.184396,101.042288 L208.255888,99.6198964 L217.794532,186.846264 L247.048591,186.968875 L249.130224,208.688231 L220.207469,208.810723 L232.347561,318.702427 L211.330982,319.682441 L182.020258,76.3598834 L244.182596,79.2148947 Z M402.380161,86.4806421 L402.685521,106.911378 L364.020537,105.461368 L366.884497,187.471139 L396.843473,187.596705 L397.228665,208.061012 L367.608977,208.186456 L370.529537,291.57126 L405.428983,290.237957 L405.734343,310.617312 L350.237437,313.205161 L339.473365,83.591439 L402.380161,86.4806421 Z M290.339062,81.3347834 L305.383903,294.06009 L334.300588,292.955354 L335.460155,313.894234 L285.874162,316.206454 L266.51637,80.2406473 L290.339062,81.3347834 Z" id="Path" stroke="#121212" stroke-width="3"></path>
                <path d="M298.698588,21.97 L315.108588,21.97 L315.108588,16.87 L303.798588,16.87 L303.798588,14.08 L312.648588,14.08 L312.648588,8.98 L303.798588,8.98 L303.798588,6.19 L315.108588,6.19 L315.108588,1.06 L298.698588,1.06 L298.698588,21.97 Z M339.108588,5.17 C341.178588,4.66 343.488588,5.41 344.898588,7 C345.678588,6.25 346.488588,5.5 347.238588,4.75 L348.948588,3.1 C347.328588,1.81 345.408588,0.94 343.398588,0.55 C341.448588,0.16 339.408588,0.19 337.488588,0.73 C335.928588,1.15 334.428588,1.87 333.378588,3.07 C332.388588,4.12 331.818588,5.56 331.788588,7 C331.788588,8.44 332.298588,9.88 333.288588,10.93 C334.218588,11.98 335.508588,12.61 336.828588,13.06 C338.148588,13.51 339.528588,13.78 340.848588,14.23 C341.688588,14.5 342.558588,14.86 342.978588,15.79 C343.008588,15.85 343.038588,15.94 343.068588,16.06 C343.278588,17.47 341.838588,18.01 340.638588,18.04 C338.448588,18.1 336.228588,17.2 334.668588,15.64 L330.558588,19.45 C332.718588,21.49 335.658588,22.57 338.628588,22.78 C340.428588,22.9 342.318588,22.72 343.998588,22 C345.678588,21.28 347.178588,20.02 347.988588,18.4 C348.828588,16.75 348.888588,14.74 348.048588,13.12 C347.598588,12.22 346.878588,11.5 346.068588,10.93 C345.498588,10.54 344.868588,10.21 344.238588,9.94 C342.678588,9.28 340.998588,8.92 339.408588,8.41 C338.718588,8.17 338.028588,7.93 337.638588,7.24 L337.548588,7.03 C337.248588,5.98 338.238588,5.38 339.108588,5.17 Z M382.098588,1.06 L382.098588,6.16 L375.498588,6.16 L375.498588,22.03 L370.398588,22.03 L370.398588,6.16 L363.798588,6.16 L363.798588,1.06 L382.098588,1.06 Z M397.848588,19.96 C397.848588,19.6 397.908588,19.24 398.058588,18.88 C398.208588,18.55 398.388588,18.25 398.658588,18.01 C398.898588,17.74 399.198588,17.56 399.528588,17.41 C399.858588,17.29 400.218588,17.2 400.608588,17.2 C400.998588,17.2 401.358588,17.29 401.688588,17.41 C402.018588,17.56 402.318588,17.74 402.588588,18.01 C402.828588,18.25 403.008588,18.55 403.158588,18.88 C403.308588,19.24 403.368588,19.6 403.368588,19.96 C403.368588,20.35 403.308588,20.71 403.158588,21.04 C403.008588,21.4 402.828588,21.67 402.588588,21.94 C402.318588,22.18 402.018588,22.39 401.688588,22.51 C401.358588,22.66 400.998588,22.72 400.608588,22.72 C400.218588,22.72 399.858588,22.66 399.528588,22.51 C399.198588,22.39 398.898588,22.18 398.658588,21.94 C398.388588,21.67 398.208588,21.4 398.058588,21.04 C397.908588,20.71 397.848588,20.35 397.848588,19.96 Z M451.758588,12.94 C452.148588,12.58 452.538588,12.19 452.868588,11.83 C453.228588,11.41 453.528588,10.99 453.798588,10.51 C454.068588,10.03 454.278588,9.52 454.428588,8.92 C454.548588,8.35 454.638588,7.72 454.638588,7 C454.638588,5.92 454.458588,4.93 454.068588,4.09 C453.708588,3.25 453.198588,2.53 452.538588,1.96 C451.878588,1.42 451.098588,1 450.228588,0.7 C449.358588,0.43 448.428588,0.28 447.438588,0.28 C446.388588,0.28 445.398588,0.43 444.468588,0.7 C443.538588,1 442.728588,1.42 442.038588,1.99 C441.348588,2.56 440.778588,3.28 440.358588,4.12 C439.938588,4.96 439.698588,5.98 439.638588,7.09 L439.608588,7.57 L444.948588,7.96 L444.978588,7.48 C445.038588,6.85 445.248588,6.34 445.638588,5.89 C445.998588,5.5 446.508588,5.29 447.198588,5.29 C447.798588,5.29 448.278588,5.47 448.698588,5.8 C449.088588,6.1 449.268588,6.52 449.268588,7.06 C449.268588,7.57 449.118588,8.02 448.788588,8.41 C448.398588,8.86 447.978588,9.25 447.588588,9.61 L439.368588,16.99 L439.368588,22.36 L454.818588,22.36 L454.818588,17.53 L446.418588,17.53 L451.758588,12.94 Z M486.288588,7.66 C486.528588,8.95 486.648588,10.24 486.648588,11.5 C486.648588,12.76 486.528588,14.05 486.288588,15.34 C486.078588,16.66 485.658588,17.86 485.058588,18.94 C484.428588,20.05 483.588588,20.95 482.538588,21.64 C481.458588,22.36 480.078588,22.69 478.458588,22.69 C476.838588,22.69 475.458588,22.36 474.378588,21.64 C473.328588,20.95 472.488588,20.05 471.858588,18.94 C471.258588,17.86 470.838588,16.66 470.628588,15.34 C470.388588,14.05 470.268588,12.76 470.268588,11.5 C470.268588,10.24 470.388588,8.95 470.628588,7.66 C470.838588,6.34 471.258588,5.14 471.858588,4.06 C472.488588,2.95 473.328588,2.05 474.378588,1.36 C475.458588,0.64 476.838588,0.28 478.458588,0.28 C480.078588,0.28 481.458588,0.64 482.538588,1.36 C483.588588,2.05 484.428588,2.95 485.058588,4.06 C485.658588,5.14 486.078588,6.34 486.288588,7.66 Z M475.698588,9.55 C475.638588,10.3 475.638588,10.96 475.638588,11.5 C475.638588,12.04 475.638588,12.67 475.698588,13.42 C475.758588,14.14 475.878588,14.86 476.088588,15.52 C476.268588,16.15 476.568588,16.69 476.958588,17.14 C477.288588,17.5 477.798588,17.71 478.458588,17.71 C479.118588,17.71 479.598588,17.5 479.958588,17.11 C480.348588,16.69 480.648588,16.15 480.858588,15.52 C481.038588,14.86 481.188588,14.14 481.218588,13.42 C481.278588,12.67 481.278588,12.04 481.278588,11.5 C481.278588,10.96 481.278588,10.33 481.218588,9.55 C481.188588,8.83 481.038588,8.14 480.858588,7.48 C480.648588,6.85 480.348588,6.31 479.958588,5.86 C479.598588,5.47 479.118588,5.29 478.458588,5.29 C477.798588,5.29 477.288588,5.47 476.958588,5.86 C476.568588,6.31 476.268588,6.85 476.088588,7.48 C475.878588,8.14 475.758588,8.83 475.698588,9.55 Z M506.538588,1.12 C506.538588,2.71 504.528588,4.06 502.878588,4.06 L502.398588,4.06 L502.398588,7.39 L506.178588,7.39 L506.178588,22.36 L511.608588,22.36 L511.608588,0.64 L506.538588,0.64 L506.538588,1.12 Z M541.878588,9.97 C542.478588,10.63 542.958588,11.41 543.288588,12.28 C543.618588,13.15 543.798588,14.11 543.798588,15.1 C543.798588,16.24 543.588588,17.29 543.138588,18.22 C542.718588,19.15 542.148588,19.96 541.398588,20.62 C540.648588,21.28 539.778588,21.79 538.788588,22.15 C537.768588,22.51 536.688588,22.69 535.578588,22.69 C534.438588,22.69 533.358588,22.51 532.368588,22.15 C531.378588,21.79 530.508588,21.28 529.758588,20.62 C529.008588,19.96 528.438588,19.15 528.018588,18.22 C527.568588,17.29 527.358588,16.24 527.358588,15.1 C527.358588,14.32 527.448588,13.6 527.568588,12.97 C527.718588,12.31 527.898588,11.71 528.138588,11.14 C528.378588,10.57 528.648588,10.03 528.978588,9.49 C529.278588,9.01 529.578588,8.5 529.938588,7.96 L534.618588,0.64 L541.128588,0.64 L536.388588,7.87 C536.538588,7.87 536.658588,7.84 536.808588,7.84 C537.858588,7.84 538.818588,8.05 539.658588,8.41 C540.528588,8.8 541.278588,9.31 541.878588,9.97 Z M538.428588,14.92 C538.428588,14.11 538.188588,13.45 537.648588,12.94 C537.138588,12.4 536.448588,12.16 535.578588,12.16 C534.708588,12.16 534.018588,12.4 533.508588,12.94 C532.968588,13.45 532.728588,14.11 532.728588,14.92 C532.728588,15.73 532.968588,16.39 533.508588,16.93 C534.018588,17.44 534.708588,17.71 535.578588,17.71 C536.448588,17.71 537.138588,17.44 537.648588,16.93 C538.188588,16.39 538.428588,15.73 538.428588,14.92 Z" id="est.-2016"></path>
                <path d="M265.747865,397.06 C271.507865,397.06 276.187865,401.77 276.187865,407.53 C276.187865,413.29 271.507865,417.97 265.747865,417.97 L256.867865,417.97 L256.867865,397.06 L265.747865,397.06 Z M265.747865,412.87 C268.687865,412.87 271.087865,410.47 271.087865,407.53 C271.087865,404.59 268.687865,402.19 265.747865,402.19 L261.967865,402.19 L261.967865,412.87 L265.747865,412.87 Z M300.467865,417.97 L316.877865,417.97 L316.877865,412.87 L305.567865,412.87 L305.567865,410.08 L314.417865,410.08 L314.417865,404.98 L305.567865,404.98 L305.567865,402.19 L316.877865,402.19 L316.877865,397.06 L300.467865,397.06 L300.467865,417.97 Z M360.357865,397.06 L360.357865,402.16 L353.757865,402.16 L353.757865,418.03 L348.657865,418.03 L348.657865,402.16 L342.057865,402.16 L342.057865,397.06 L360.357865,397.06 Z M398.287865,418.03 L397.297865,415.45 L388.747865,415.45 L387.757865,418.03 L382.237865,418.03 L390.307865,397.06 L395.707865,397.06 L403.807865,418.03 L398.287865,418.03 Z M390.697865,410.35 L395.347865,410.35 L393.007865,404.29 L390.697865,410.35 Z M428.597864,417.97 L433.697864,417.97 L433.697864,397.06 L428.597864,397.06 L428.597864,417.97 Z M464.877864,397.06 L459.777864,397.06 L459.777864,418.03 L476.487864,418.03 L476.487864,412.9 L464.877864,412.9 L464.877864,397.06 Z M501.667864,417.97 L506.767864,417.97 L506.767864,397.06 L501.667864,397.06 L501.667864,417.97 Z M546.647864,409.45 L538.457864,397.03 L532.847864,397.03 L532.847864,417.97 L537.947864,417.97 L537.947864,405.55 L546.167864,418.03 L551.747864,418.03 L551.747864,397.12 L546.647864,397.12 L546.647864,409.45 Z M586.617864,410.95 L590.877864,410.95 L590.877864,412 C589.827864,412.66 588.357864,413.11 587.037864,413.11 C583.947864,413.11 581.427864,410.62 581.427864,407.53 C581.427864,404.44 583.947864,401.92 587.037864,401.92 C588.657864,401.92 590.217864,402.64 591.297864,403.9 L595.167864,400.57 C593.127864,398.2 590.157864,396.82 587.037864,396.82 C581.127864,396.82 576.327864,401.62 576.327864,407.53 C576.327864,413.44 581.127864,418.24 587.037864,418.24 C590.127864,418.24 593.337864,416.95 595.257864,414.97 L595.977864,414.22 L595.977864,405.85 L586.617864,405.85 L586.617864,410.95 Z" id="detailing"></path>
            </g>
        </g>
    </g>
</svg>